<svg xmlns="http://www.w3.org/2000/svg" viewBox="0 0 512 512">
  <rect width="512" height="512" rx="116" fill="#0b6e4f"/>
  <circle cx="256" cy="256" r="164" fill="#ffffff" opacity=".12"/>
  <path d="M146 210c0-37 30-67 67-67h92c34 0 61 23 67 54h22c16 0 29 13 29 29v118c0 16-13 29-29 29H213c-37 0-67-30-67-67v-96Z" fill="#f6fbf8"/>
  <path d="M146 217h185c28 0 51 23 51 51s-23 51-51 51H146V217Z" fill="#d8f3e7"/>
  <circle cx="330" cy="268" r="18" fill="#0b6e4f"/>
  <path d="M213 143h92c34 0 61 23 67 54H213c-26 0-48 15-59 36-5-8-8-18-8-28 0-34 30-62 67-62Z" fill="#ffffff"/>
</svg>
