<svg xmlns="http://www.w3.org/2000/svg" viewBox="0 0 2732 2732">
  <rect width="2732" height="2732" fill="#0b6e4f"/>
  <circle cx="1366" cy="1310" r="500" fill="#ffffff" opacity=".10"/>
  <g transform="translate(686 630) scale(2.66)">
    <path d="M146 210c0-37 30-67 67-67h92c34 0 61 23 67 54h22c16 0 29 13 29 29v118c0 16-13 29-29 29H213c-37 0-67-30-67-67v-96Z" fill="#f6fbf8"/>
    <path d="M146 217h185c28 0 51 23 51 51s-23 51-51 51H146V217Z" fill="#d8f3e7"/>
    <circle cx="330" cy="268" r="18" fill="#0b6e4f"/>
    <path d="M213 143h92c34 0 61 23 67 54H213c-26 0-48 15-59 36-5-8-8-18-8-28 0-34 30-62 67-62Z" fill="#ffffff"/>
  </g>
  <text x="1366" y="1880" text-anchor="middle" fill="#ffffff" font-family="-apple-system, BlinkMacSystemFont, sans-serif" font-size="160" font-weight="700">SpendWise</text>
</svg>
